<?xml version="1.0" encoding="UTF-8" standalone="no"?>
<svg
   xmlns:dc="http://purl.org/dc/elements/1.1/"
   xmlns:cc="http://creativecommons.org/ns#"
   xmlns:rdf="http://www.w3.org/1999/02/22-rdf-syntax-ns#"
   xmlns:svg="http://www.w3.org/2000/svg"
   xmlns="http://www.w3.org/2000/svg"
   xmlns:sodipodi="http://sodipodi.sourceforge.net/DTD/sodipodi-0.dtd"
   xmlns:inkscape="http://www.inkscape.org/namespaces/inkscape"
   width="744.094488189"
   height="1052.36220472"
   id="svg2"
   version="1.1"
   inkscape:version="0.91 r13725"
   sodipodi:docname="ver4.0x11.svg">
  <metadata
     id="metadata26">
    <rdf:RDF>
      <cc:Work
         rdf:about="">
        <dc:format>image/svg+xml</dc:format>
        <dc:type
           rdf:resource="http://purl.org/dc/dcmitype/StillImage" />
        <dc:title></dc:title>
      </cc:Work>
    </rdf:RDF>
  </metadata>
  <sodipodi:namedview
     pagecolor="#ffffff"
     bordercolor="#666666"
     borderopacity="1"
     objecttolerance="10"
     gridtolerance="10"
     guidetolerance="10"
     inkscape:pageopacity="0"
     inkscape:pageshadow="2"
     inkscape:window-width="2455"
     inkscape:window-height="1333"
     id="namedview24"
     showgrid="false"
     inkscape:zoom="0.89702957"
     inkscape:cx="764.52816"
     inkscape:cy="521.88326"
     inkscape:window-x="0"
     inkscape:window-y="0"
     inkscape:window-maximized="0"
     inkscape:current-layer="g20" />
  <desc
     id="desc4">C:\Users\jeroen\ownCloud\Laser\woordklok\ver4.0.dxf - scale = 1.000000, origin = (0.000000, 0.000000), auto = False</desc>
  <defs
     id="defs6">
    <marker
       refY="0.0"
       refX="0.0"
       style="overflow:visible"
       id="DistanceX"
       orient="auto">
      <path
         style="stroke:#000000; stroke-width:0.5"
         d="M 3,-3 L -3,3 M 0,-5 L  0,5"
         id="path9" />
    </marker>
    <pattern
       height="8"
       width="8"
       patternUnits="userSpaceOnUse"
       y="0"
       x="0"
       id="Hatch">
      <path
         linecap="square"
         stroke="#000000"
         stroke-width="0.25"
         d="M8 4 l-4,4"
         id="path12" />
      <path
         linecap="square"
         stroke="#000000"
         stroke-width="0.25"
         d="M6 2 l-4,4"
         id="path14" />
      <path
         linecap="square"
         stroke="#000000"
         stroke-width="0.25"
         d="M4 0 l-4,4"
         id="path16" />
    </pattern>
    <symbol
       id="*MODEL_SPACE" />
    <symbol
       id="*PAPER_SPACE" />
  </defs>
  <g
     inkscape:label="0"
     inkscape:groupmode="layer"
     id="g20">
    <path
       style="fill:none;stroke:#000000"
       d="m 702.18553,1052.3622 -30.78248,0 a 25.688976,25.688976 0 0 0 -35.43307,0 l -30.78248,0 a 25.688976,25.688976 0 0 0 -35.43307,0 l -30.78248,0 a 25.688976,25.688976 0 0 0 -35.43307,0 l -30.78248,0 a 25.688976,25.688976 0 0 0 -35.43307,0 l -30.78248,0 a 25.688976,25.688976 0 0 0 -35.43307,0 l -30.78249,0 a 25.688976,25.688976 0 0 0 -35.43307,0 l -30.78248,0 a 25.688976,25.688976 0 0 0 -35.43307,0 l -30.78248,0 a 25.688976,25.688976 0 0 0 -35.43307,0 l -30.78248,0 a 25.688976,25.688976 0 0 0 -35.43307,0 l -105.74557,0 0,-87.87401 83.26771,0 1.4e-5,43.93701 14.173214,0 0,-43.93701 52.042332,0 0,43.93701 14.17322,0 0,-43.93701 52.04234,0 0,43.93701 14.17321,0 0,-43.93701 52.04234,0 0,43.93701 14.17321,0 0,-43.93701 52.04234,0 0,43.93701 14.17321,0 0,-43.93701 52.04234,0 0,43.93701 14.17321,0 0,-43.93701 52.04234,0 0,43.93701 14.17321,0 0,-43.93701 52.04234,0 0,43.93701 14.17322,0 0,-43.93701 52.04233,0 0,43.93701 14.17322,0 0,-43.93701 52.04233,0 0,43.93701 14.17322,0 0,-43.93701 52.04233,0 0,43.93701 14.17322,0 0,-43.93701 12.8445,0 0,87.87401 -35.32235,0 a 25.688976,25.688976 0 0 0 -35.43307,0 z"
       id="path22"
       inkscape:connector-curvature="0" />
    <path
       inkscape:connector-curvature="0"
       style="fill:none;stroke:#000000"
       d="m 702.18554,959.40955 -30.78249,0 a 25.688976,25.688976 0 0 0 -35.43307,0 l -30.78248,0 a 25.688976,25.688976 0 0 0 -35.43307,0 l -30.78249,0 a 25.688976,25.688976 0 0 0 -35.43306,0 l -30.78249,0 a 25.688976,25.688976 0 0 0 -35.43307,0 l -30.78248,0 a 25.688976,25.688976 0 0 0 -35.43307,0 l -30.78248,0 a 25.688976,25.688976 0 0 0 -35.43307,0 l -30.78248,0 a 25.688976,25.688976 0 0 0 -35.43307,0 l -30.78248,0 a 25.688976,25.688976 0 0 0 -35.43307,0 l -30.78248,0 a 25.688976,25.688976 0 0 0 -35.43307,0 l -105.74557,0 0,-87.87401 83.26771,0 2e-5,43.93701 14.17321,0 0,-43.93701 52.04233,0 0,43.93701 14.17322,0 0,-43.93701 52.04233,0 0,43.93701 14.17321,0 0,-43.93701 52.04234,0 0,43.93701 14.17323,0 0,-43.93701 52.04233,0 0,43.93701 14.17322,0 0,-43.93701 52.04233,0 0,43.93701 14.17322,0 0,-43.93701 52.04234,0 0,43.93701 14.17321,0 0,-43.93701 52.04234,0 0,43.93701 14.1732,0 0,-43.93701 52.04234,0 0,43.93701 14.17322,0 0,-43.93701 52.04234,0 0,43.93701 14.1732,0 0,-43.93701 52.04234,0 0,43.93701 14.17322,0 0,-43.93701 12.8445,0 0,87.87401 -35.32234,0 a 25.688976,25.688976 0 0 0 -35.43307,0 z"
       id="path22-9" />
    <path
       inkscape:connector-curvature="0"
       style="fill:none;stroke:#000000"
       d="m 702.18554,867.99673 -30.78249,0 a 25.688976,25.688976 0 0 0 -35.43307,0 l -30.78248,0 a 25.688976,25.688976 0 0 0 -35.43307,0 l -30.78249,0 a 25.688976,25.688976 0 0 0 -35.43306,0 l -30.78249,0 a 25.688976,25.688976 0 0 0 -35.43307,0 l -30.78248,0 a 25.688976,25.688976 0 0 0 -35.43308,0 l -30.78248,0 a 25.688976,25.688976 0 0 0 -35.43307,0 l -30.78248,0 a 25.688976,25.688976 0 0 0 -35.43307,0 l -30.78248,0 a 25.688976,25.688976 0 0 0 -35.43306,0 l -30.78248,0 a 25.688976,25.688976 0 0 0 -35.43307,0 l -105.74557,0 0,-87.87401 83.26771,0 1e-5,43.93701 14.17321,0 0,-43.93701 52.04234,0 0,43.93701 14.17322,0 0,-43.93701 52.04232,0 0,43.93701 14.17321,0 0,-43.93701 52.04234,0 0,43.93701 14.17323,0 0,-43.93701 52.04233,0 0,43.93701 14.17322,0 0,-43.93701 52.04234,0 0,43.93701 14.17322,0 0,-43.93701 52.04234,0 0,43.93701 14.17321,0 0,-43.93701 52.04234,0 0,43.93701 14.1732,0 0,-43.93701 52.04234,0 0,43.93701 14.17322,0 0,-43.93701 52.04234,0 0,43.93701 14.1732,0 0,-43.93701 52.04234,0 0,43.93701 14.17322,0 0,-43.93701 12.8445,0 0,87.87401 -35.32234,0 a 25.688976,25.688976 0 0 0 -35.43307,0 z"
       id="path22-2" />
    <path
       inkscape:connector-curvature="0"
       style="fill:none;stroke:#000000"
       d="m 702.18555,776.12475 -30.7825,0 a 25.688976,25.688976 0 0 0 -35.43307,0 l -30.78248,0 a 25.688976,25.688976 0 0 0 -35.43306,0 l -30.7825,0 a 25.688976,25.688976 0 0 0 -35.43306,0 l -30.78249,0 a 25.688976,25.688976 0 0 0 -35.43307,0 l -30.78248,0 a 25.688976,25.688976 0 0 0 -35.43307,0 l -30.78248,0 a 25.688976,25.688976 0 0 0 -35.43307,0 l -30.78248,0 a 25.688976,25.688976 0 0 0 -35.43307,0 l -30.78248,0 a 25.688976,25.688976 0 0 0 -35.43307,0 l -30.78248,0 a 25.688976,25.688976 0 0 0 -35.43307,0 l -105.74557,0 0,-87.87401 83.26771,0 2e-5,43.93701 14.17321,0 0,-43.93701 52.04233,0 0,43.93701 14.17322,0 0,-43.93701 52.04233,0 0,43.93701 14.17321,0 0,-43.93701 52.04234,0 0,43.93701 14.17323,0 0,-43.93701 52.04233,0 0,43.93701 14.17322,0 0,-43.93701 52.04233,0 0,43.93701 14.17322,0 0,-43.93701 52.04235,0 0,43.93701 14.17321,0 0,-43.93701 52.04234,0 0,43.93701 14.17319,0 0,-43.93701 52.04235,0 0,43.93701 14.17322,0 0,-43.93701 52.04234,0 0,43.93701 14.17319,0 0,-43.93701 52.04234,0 0,43.93701 14.17322,0 0,-43.93701 12.84451,0 0,87.87401 -35.32235,0 a 25.688976,25.688976 0 0 0 -35.43307,0 z"
       id="path22-23" />
    <path
       style="fill:none;stroke:#000000"
       d="m 702.18553,684.82622 -30.78248,0 a 25.688976,25.688976 0 0 0 -35.43307,0 l -30.78248,0 a 25.688976,25.688976 0 0 0 -35.43307,0 l -30.78248,0 a 25.688976,25.688976 0 0 0 -35.43307,0 l -30.78248,0 a 25.688976,25.688976 0 0 0 -35.43307,0 l -30.78248,0 a 25.688976,25.688976 0 0 0 -35.43307,0 l -30.78249,0 a 25.688976,25.688976 0 0 0 -35.43307,0 l -30.78248,0 a 25.688976,25.688976 0 0 0 -35.43307,0 l -30.78248,0 a 25.688976,25.688976 0 0 0 -35.43307,0 l -30.78248,0 a 25.688976,25.688976 0 0 0 -35.43307,0 l -105.74557,0 0,-87.87401 83.267711,0 2e-5,43.93701 14.17321,0 0,-43.93701 52.042329,0 0,43.93701 14.17322,0 0,-43.93701 52.04234,0 0,43.93701 14.17321,0 0,-43.93701 52.04234,0 0,43.93701 14.17321,0 0,-43.93701 52.04234,0 0,43.93701 14.17321,0 0,-43.93701 52.04234,0 0,43.93701 14.17321,0 0,-43.93701 52.04234,0 0,43.93701 14.17321,0 0,-43.93701 52.04234,0 0,43.93701 14.17322,0 0,-43.93701 52.04233,0 0,43.93701 14.17322,0 0,-43.93701 52.04233,0 0,43.93701 14.17322,0 0,-43.93701 52.04233,0 0,43.93701 14.17322,0 0,-43.93701 12.8445,0 0,87.87401 -35.32235,0 a 25.688976,25.688976 0 0 0 -35.43307,0 z"
       id="path22-6"
       inkscape:connector-curvature="0" />
    <path
       inkscape:connector-curvature="0"
       style="fill:none;stroke:#000000"
       d="m 702.18554,591.87357 -30.78249,0 a 25.688976,25.688976 0 0 0 -35.43307,0 l -30.78248,0 a 25.688976,25.688976 0 0 0 -35.43307,0 l -30.78249,0 a 25.688976,25.688976 0 0 0 -35.43306,0 l -30.78249,0 a 25.688976,25.688976 0 0 0 -35.43307,0 l -30.78248,0 a 25.688976,25.688976 0 0 0 -35.43307,0 l -30.78248,0 a 25.688976,25.688976 0 0 0 -35.43307,0 l -30.78248,0 a 25.688976,25.688976 0 0 0 -35.43307,0 l -30.78248,0 a 25.688976,25.688976 0 0 0 -35.43307,0 l -30.78248,0 a 25.688976,25.688976 0 0 0 -35.43307,0 l -105.74557,0 0,-87.87401 83.267711,0 2e-5,43.93701 14.17321,0 0,-43.93701 52.042329,0 0,43.93701 14.17322,0 0,-43.93701 52.04233,0 0,43.93701 14.17321,0 0,-43.93701 52.04234,0 0,43.93701 14.17323,0 0,-43.93701 52.04233,0 0,43.93701 14.17322,0 0,-43.93701 52.04233,0 0,43.93701 14.17322,0 0,-43.93701 52.04234,0 0,43.93701 14.17321,0 0,-43.93701 52.04234,0 0,43.93701 14.1732,0 0,-43.93701 52.04234,0 0,43.93701 14.17322,0 0,-43.93701 52.04234,0 0,43.93701 14.1732,0 0,-43.93701 52.04234,0 0,43.93701 14.17322,0 0,-43.93701 12.8445,0 0,87.87401 -35.32234,0 a 25.688976,25.688976 0 0 0 -35.43307,0 z"
       id="path22-9-3" />
    <path
       inkscape:connector-curvature="0"
       style="fill:none;stroke:#000000"
       d="m 702.18554,500.46075 -30.78249,0 a 25.688976,25.688976 0 0 0 -35.43307,0 l -30.78248,0 a 25.688976,25.688976 0 0 0 -35.43307,0 l -30.78249,0 a 25.688976,25.688976 0 0 0 -35.43306,0 l -30.78249,0 a 25.688976,25.688976 0 0 0 -35.43307,0 l -30.78248,0 a 25.688976,25.688976 0 0 0 -35.43308,0 l -30.78248,0 a 25.688976,25.688976 0 0 0 -35.43307,0 l -30.78248,0 a 25.688976,25.688976 0 0 0 -35.43307,0 l -30.78248,0 a 25.688976,25.688976 0 0 0 -35.43306,0 l -30.78248,0 a 25.688976,25.688976 0 0 0 -35.43307,0 l -105.74557,0 0,-87.87401 83.267711,0 10e-6,43.93701 14.17321,0 0,-43.93701 52.042339,0 0,43.93701 14.17322,0 0,-43.93701 52.04232,0 0,43.93701 14.17321,0 0,-43.93701 52.04234,0 0,43.93701 14.17323,0 0,-43.93701 52.04233,0 0,43.93701 14.17322,0 0,-43.93701 52.04234,0 0,43.93701 14.17322,0 0,-43.93701 52.04234,0 0,43.93701 14.17321,0 0,-43.93701 52.04234,0 0,43.93701 14.1732,0 0,-43.93701 52.04234,0 0,43.93701 14.17322,0 0,-43.93701 52.04234,0 0,43.93701 14.1732,0 0,-43.93701 52.04234,0 0,43.93701 14.17322,0 0,-43.93701 12.8445,0 0,87.87401 -35.32234,0 a 25.688976,25.688976 0 0 0 -35.43307,0 z"
       id="path22-2-1" />
    <path
       inkscape:connector-curvature="0"
       style="fill:none;stroke:#000000"
       d="m 702.18555,408.58877 -30.7825,0 a 25.688976,25.688976 0 0 0 -35.43307,0 l -30.78248,0 a 25.688976,25.688976 0 0 0 -35.43306,0 l -30.7825,0 a 25.688976,25.688976 0 0 0 -35.43306,0 l -30.78249,0 a 25.688976,25.688976 0 0 0 -35.43307,0 l -30.78248,0 a 25.688976,25.688976 0 0 0 -35.43307,0 l -30.78248,0 a 25.688976,25.688976 0 0 0 -35.43307,0 l -30.78248,0 a 25.688976,25.688976 0 0 0 -35.43307,0 l -30.78248,0 a 25.688976,25.688976 0 0 0 -35.43307,0 l -30.78248,0 a 25.688976,25.688976 0 0 0 -35.43307,0 l -105.74557,0 0,-87.87401 83.267711,0 2e-5,43.93701 14.17321,0 0,-43.93701 52.042329,0 0,43.93701 14.17322,0 0,-43.93701 52.04233,0 0,43.93701 14.17321,0 0,-43.93701 52.04234,0 0,43.93701 14.17323,0 0,-43.93701 52.04233,0 0,43.93701 14.17322,0 0,-43.93701 52.04233,0 0,43.93701 14.17322,0 0,-43.93701 52.04235,0 0,43.93701 14.17321,0 0,-43.93701 52.04234,0 0,43.93701 14.17319,0 0,-43.93701 52.04235,0 0,43.93701 14.17322,0 0,-43.93701 52.04234,0 0,43.93701 14.17319,0 0,-43.93701 52.04234,0 0,43.93701 14.17322,0 0,-43.93701 12.84451,0 0,87.87401 -35.32235,0 a 25.688976,25.688976 0 0 0 -35.43307,0 z"
       id="path22-23-9" />
    <path
       inkscape:connector-curvature="0"
       style="fill:none;stroke:#000000"
       d="m 702.18559,316.40503 -30.7825,0 a 25.688976,25.688976 0 0 0 -35.43311,0 l -30.78248,0 a 25.688976,25.688976 0 0 0 -35.43307,0 l -30.78249,0 a 25.688976,25.688976 0 0 0 -35.43306,0 l -30.78249,0 a 25.688976,25.688976 0 0 0 -35.43307,0 l -30.78248,0 a 25.688976,25.688976 0 0 0 -35.43307,0 l -30.78248,0 a 25.688976,25.688976 0 0 0 -35.43307,0 l -30.78248,0 a 25.688976,25.688976 0 0 0 -35.43307,0 l -30.78248,0 a 25.688976,25.688976 0 0 0 -35.43307,0 l -30.78248,0 a 25.688976,25.688976 0 0 0 -35.43307,0 l -105.74557,0 0,-87.87401 83.26771,0 2e-5,43.93701 14.173214,0 0,-43.93701 52.042326,0 0,43.93701 14.17322,0 0,-43.93701 52.04233,0 0,43.93701 14.17321,0 0,-43.93701 52.04234,0 0,43.93701 14.17323,0 0,-43.93701 52.04233,0 0,43.93701 14.17322,0 0,-43.93701 52.04233,0 0,43.93701 14.17322,0 0,-43.93701 52.04234,0 0,43.93701 14.17321,0 0,-43.93701 52.04234,0 0,43.93701 14.1732,0 0,-43.93701 52.04234,0 0,43.93701 14.17322,0 0,-43.93701 52.04234,0 0,43.93701 14.1732,0 0,-43.93701 52.0423,0 0,43.93701 14.1733,0 0,-43.93701 12.8445,0 0,87.87401 -35.3224,0 a 25.688976,25.688976 0 0 0 -35.433,0 z"
       id="path22-9-3-4" />
    <path
       inkscape:connector-curvature="0"
       style="fill:none;stroke:#000000"
       d="m 702.18559,224.99221 -30.7825,0 a 25.688976,25.688976 0 0 0 -35.43311,0 l -30.78248,0 a 25.688976,25.688976 0 0 0 -35.43307,0 l -30.78249,0 a 25.688976,25.688976 0 0 0 -35.43306,0 l -30.78249,0 a 25.688976,25.688976 0 0 0 -35.43307,0 l -30.78248,0 a 25.688976,25.688976 0 0 0 -35.43308,0 l -30.78248,0 a 25.688976,25.688976 0 0 0 -35.43307,0 l -30.78248,0 a 25.688976,25.688976 0 0 0 -35.43307,0 l -30.78248,0 a 25.688976,25.688976 0 0 0 -35.43306,0 l -30.78248,0 a 25.688976,25.688976 0 0 0 -35.43307,0 l -105.74557,0 0,-87.87401 83.26771,0 1e-5,43.93701 14.173214,0 0,-43.93701 52.042336,0 0,43.93701 14.17322,0 0,-43.93701 52.04232,0 0,43.93701 14.17321,0 0,-43.93701 52.04234,0 0,43.93701 14.17323,0 0,-43.93701 52.04233,0 0,43.93701 14.17322,0 0,-43.93701 52.04234,0 0,43.93701 14.17322,0 0,-43.93701 52.04234,0 0,43.93701 14.17321,0 0,-43.93701 52.04234,0 0,43.93701 14.1732,0 0,-43.93701 52.04234,0 0,43.93701 14.17322,0 0,-43.93701 52.04234,0 0,43.93701 14.1732,0 0,-43.93701 52.0423,0 0,43.93701 14.1733,0 0,-43.93701 12.8445,0 0,87.87401 -35.3224,0 a 25.688976,25.688976 0 0 0 -35.433,0 z"
       id="path22-2-1-4" />
    <path
       inkscape:connector-curvature="0"
       style="fill:none;stroke:#000000"
       d="m 702.18559,133.12023 -30.7825,0 a 25.688976,25.688976 0 0 0 -35.43311,0 l -30.78248,0 a 25.688976,25.688976 0 0 0 -35.43306,0 l -30.7825,0 a 25.688976,25.688976 0 0 0 -35.43306,0 l -30.78249,0 a 25.688976,25.688976 0 0 0 -35.43307,0 l -30.78248,0 a 25.688976,25.688976 0 0 0 -35.43307,0 l -30.78248,0 a 25.688976,25.688976 0 0 0 -35.43307,0 l -30.78248,0 a 25.688976,25.688976 0 0 0 -35.43307,0 l -30.78248,0 a 25.688976,25.688976 0 0 0 -35.43307,0 l -30.78248,0 a 25.688976,25.688976 0 0 0 -35.43307,0 l -105.74557,0 0,-87.874002 83.26771,0 2e-5,43.93701 14.173214,0 0,-43.93701 52.042326,0 0,43.93701 14.17322,0 0,-43.93701 52.04233,0 0,43.93701 14.17321,0 0,-43.93701 52.04234,0 0,43.93701 14.17323,0 0,-43.93701 52.04233,0 0,43.93701 14.17322,0 0,-43.93701 52.04233,0 0,43.93701 14.17322,0 0,-43.93701 52.04235,0 0,43.93701 14.17321,0 0,-43.93701 52.04234,0 0,43.93701 14.17319,0 0,-43.93701 52.04235,0 0,43.93701 14.17322,0 0,-43.93701 52.04233,0 0,43.93701 14.1732,0 0,-43.93701 52.0423,0 0,43.93701 14.1733,0 0,-43.93701 12.8445,0 0,87.874002 -35.3224,0 a 25.688976,25.688976 0 0 0 -35.433,0 z"
       id="path22-23-9-0" />
  </g>
</svg>
