<?xml version="1.0" encoding="UTF-8" standalone="no"?>
<!-- Created with Inkscape (http://www.inkscape.org/) -->

<svg
   xmlns:dc="http://purl.org/dc/elements/1.1/"
   xmlns:cc="http://creativecommons.org/ns#"
   xmlns:rdf="http://www.w3.org/1999/02/22-rdf-syntax-ns#"
   xmlns:svg="http://www.w3.org/2000/svg"
   xmlns="http://www.w3.org/2000/svg"
   xmlns:sodipodi="http://sodipodi.sourceforge.net/DTD/sodipodi-0.dtd"
   xmlns:inkscape="http://www.inkscape.org/namespaces/inkscape"
   width="534.84949"
   height="127.99998"
   viewBox="0 0 534.84947 127.99998"
   id="svg2"
   version="1.1"
   inkscape:version="0.91 r13725"
   sodipodi:docname="bitlair-v2.svg"
   inkscape:export-filename="/home/roel/bitlair.png"
   inkscape:export-xdpi="90.02533"
   inkscape:export-ydpi="90.02533">
  <defs
     id="defs4" />
  <sodipodi:namedview
     id="base"
     pagecolor="#ffffff"
     bordercolor="#666666"
     borderopacity="1.0"
     inkscape:pageopacity="0.0"
     inkscape:pageshadow="2"
     inkscape:zoom="1.4"
     inkscape:cx="247.23554"
     inkscape:cy="78.886011"
     inkscape:document-units="px"
     inkscape:current-layer="layer1"
     showgrid="false"
     fit-margin-top="9"
     fit-margin-left="9"
     fit-margin-right="9"
     fit-margin-bottom="9"
     inkscape:window-width="1920"
     inkscape:window-height="1080"
     inkscape:window-x="0"
     inkscape:window-y="0"
     inkscape:window-maximized="0"
     units="px" />
  <metadata
     id="metadata7">
    <rdf:RDF>
      <cc:Work
         rdf:about="">
        <dc:format>image/svg+xml</dc:format>
        <dc:type
           rdf:resource="http://purl.org/dc/dcmitype/StillImage" />
        <dc:title></dc:title>
      </cc:Work>
    </rdf:RDF>
  </metadata>
  <g
     inkscape:label="Layer 1"
     inkscape:groupmode="layer"
     id="layer1"
     transform="translate(53.049742,-940.23632)">
    <path
       style="fill:#fc5d1d;fill-opacity:1"
       d="m -44.049742,949.23632 0,19.58904 9.794523,0 9.794524,0 0,-9.79452 0,-9.79452 -19.589047,0 z m 0,22.60274 0,19.58905 9.794523,0 9.794524,0 0,-9.79452 0,-9.79453 -9.794524,0 -9.794523,0 z m 135.616482,0 0,9.79453 0,9.79452 9.79452,0 9.79453,0 0,-9.79452 0,-9.79453 -9.79453,0 -9.79452,0 z m 90.41099,0 0,9.79453 0,9.79452 9.79452,0 9.79453,0 0,-9.79452 0,-9.79453 -9.79453,0 -9.79452,0 z m -226.027472,22.60275 0,11.30129 0,8.2877 9.794523,0 9.794524,0 0,-9.7945 0,-9.79449 -9.794524,0 -9.794523,0 z m 22.602747,0 0,9.79449 0,9.7945 9.794523,0 9.7945242,0 0,-9.7945 0,-9.79449 -9.7945242,0 -9.794523,0 z m 22.6027468,0 0,9.79449 0,9.7945 9.7945242,0 9.794523,0 0,-9.7945 0,-9.79449 -9.794523,0 -9.7945242,0 z m 45.2054942,0 0,9.79449 0,9.7945 9.794524,0 9.794524,0 0,-9.7945 0,-9.79449 -9.794524,0 -9.794524,0 z m 45.205494,0 0,9.79449 0,9.7945 9.79452,0 9.79453,0 0,-9.7945 0,-9.79449 -9.79453,0 -9.79452,0 z m 22.60275,0 0,9.79449 0,9.7945 9.79452,0 9.79453,0 0,-9.7945 0,-9.79449 -9.79453,0 -9.79452,0 z m 67.80824,0 0,9.79449 0,9.7945 9.79452,0 9.79453,0 0,-9.7945 0,-9.79449 -9.79453,0 -9.79452,0 z m 113.01373,0 0,9.79449 0,9.7945 9.79453,0 9.79452,0 0,-9.7945 0,-9.79449 -9.79452,0 -9.79453,0 z m 67.80825,0 0,9.79449 0,9.7945 9.79452,0 9.79452,0 0,-9.7945 0,-9.79449 -9.79452,0 -9.79452,0 z m 67.80824,0 0,9.79449 0,9.7945 9.79452,0 9.79453,0 0,-9.7945 0,-9.79449 -9.79453,0 -9.79452,0 z m 22.60274,0 0,9.79449 0,9.7945 9.79453,0 9.79452,0 0,-9.7945 0,-9.79449 -9.79452,0 -9.79453,0 z m -497.260432,22.60269 0,19.5891 9.794523,0 9.794524,0 0,-9.7946 0,-9.7945 -9.794524,0 -9.794523,0 z m 45.2054938,0 0,9.7945 0,9.7946 9.7945242,0 9.794523,0 0,-9.7946 0,-9.7945 -9.794523,0 -9.7945242,0 z m 45.2054942,0 0,9.7945 0,9.7946 9.794524,0 9.794524,0 0,-9.7946 0,-9.7945 -9.794524,0 -9.794524,0 z m 45.205494,0 0,9.7945 0,9.7946 9.79452,0 9.79453,0 0,-9.7946 0,-9.7945 -9.79453,0 -9.79452,0 z m 90.41099,0 0,9.7945 0,9.7946 9.79452,0 9.79453,0 0,-9.7946 0,-9.7945 -9.79453,0 -9.79452,0 z m 135.61648,0 0,9.7945 0,9.7946 9.79453,0 9.79452,0 0,-9.7946 0,-9.7945 -9.79452,0 -9.79453,0 z m 45.2055,0 0,9.7945 0,9.7946 9.79452,0 9.79452,0 0,-9.7946 0,-9.7945 -9.79452,0 -9.79452,0 z m 45.20549,0 0,9.7945 0,9.7946 9.79452,0 9.79453,0 0,-9.7946 0,-9.7945 -9.79453,0 -9.79452,0 z m -452.054942,22.6028 0,19.589 9.794523,0 9.794524,0 0,-9.7945 0,-9.7945 -9.794524,0 -9.794523,0 z m 22.602747,0 0,9.7945 0,9.7945 9.794523,0 9.7945242,0 0,-9.7945 0,-9.7945 -9.7945242,0 -9.794523,0 z m 22.6027468,0 0,9.7945 0,9.7945 9.7945242,0 9.794523,0 0,-9.7945 0,-9.7945 -9.794523,0 -9.7945242,0 z m 45.2054942,0 0,9.7945 0,9.7945 9.794524,0 9.794524,0 0,-9.7945 0,-9.7945 -9.794524,0 -9.794524,0 z m 67.808244,0 0,9.7945 0,9.7945 9.79452,0 9.79453,0 0,-9.7945 0,-9.7945 -9.79453,0 -9.79452,0 z m 22.60274,0 0,9.7945 0,9.7945 9.79453,0 9.79452,0 0,-9.7945 0,-9.7945 -9.79452,0 -9.79453,0 z m 67.80825,0 0,9.7945 0,9.7945 9.79452,0 9.79452,0 0,-9.7945 0,-9.7945 -9.79452,0 -9.79452,0 z m 22.60274,0 0,9.7945 0,9.7945 9.79453,0 9.79452,0 0,-9.7945 0,-9.7945 -9.79452,0 -9.79453,0 z m 45.2055,0 0,9.7945 0,9.7945 9.79452,0 9.79453,0 0,-9.7945 0,-9.7945 -9.79453,0 -9.79452,0 z m 22.60274,0 0,9.7945 0,9.7945 9.79453,0 9.79452,0 0,-9.7945 0,-9.7945 -9.79452,0 -9.79453,0 z m 22.60275,0 0,9.7945 0,9.7945 9.79453,0 9.79452,0 0,-9.7945 0,-9.7945 -9.79452,0 -9.79453,0 z m 45.2055,0 0,9.7945 0,9.7945 9.79452,0 9.79452,0 0,-9.7945 0,-9.7945 -9.79452,0 -9.79452,0 z m 45.20549,0 0,9.7945 0,9.7945 9.79452,0 9.79453,0 0,-9.7945 0,-9.7945 -9.79453,0 -9.79452,0 z"
       id="path4165"
       inkscape:connector-curvature="0" />
  </g>
</svg>
