<?xml version="1.0" encoding="UTF-8"?>
<svg width="534.85" height="128" version="1.1" viewBox="0 0 534.84947 127.99998" xmlns="http://www.w3.org/2000/svg" xmlns:cc="http://creativecommons.org/ns#" xmlns:dc="http://purl.org/dc/elements/1.1/" xmlns:rdf="http://www.w3.org/1999/02/22-rdf-syntax-ns#">
<metadata>
<rdf:RDF>
<cc:Work rdf:about="">
<dc:format>image/svg+xml</dc:format>
<dc:type rdf:resource="http://purl.org/dc/dcmitype/StillImage"/>
<dc:title/>
</cc:Work>
</rdf:RDF>
</metadata>
<g transform="translate(53.05 -940.24)">
<path d="m-44.05 949.24v19.589h9.7945 9.7945v-9.7945-9.7945h-19.589zm0 22.603v19.589h9.7945 9.7945v-9.7945-9.7945h-9.7945-9.7945zm135.62 0v9.7945 9.7945h9.7945 9.7945v-9.7945-9.7945h-9.7945-9.7945zm90.411 0v9.7945 9.7945h9.7945 9.7945v-9.7945-9.7945h-9.7945-9.7945zm-226.03 22.603v11.301 8.2877h9.7945 9.7945v-9.7945-9.7945h-9.7945-9.7945zm22.603 0v9.7945 9.7945h9.7945 9.7945v-9.7945-9.7945h-9.7945-9.7945zm22.603 0v9.7945 9.7945h9.7945 9.7945v-9.7945-9.7945h-9.7945-9.7945zm45.205 0v9.7945 9.7945h9.7945 9.7945v-9.7945-9.7945h-9.7945-9.7945zm45.205 0v9.7945 9.7945h9.7945 9.7945v-9.7945-9.7945h-9.7945-9.7945zm22.603 0v9.7945 9.7945h9.7945 9.7945v-9.7945-9.7945h-9.7945-9.7945zm67.808 0v9.7945 9.7945h9.7945 9.7945v-9.7945-9.7945h-9.7945-9.7945zm113.01 0v9.7945 9.7945h9.7945 9.7945v-9.7945-9.7945h-9.7945-9.7945zm67.808 0v9.7945 9.7945h9.7945 9.7945v-9.7945-9.7945h-9.7945-9.7945zm67.808 0v9.7945 9.7945h9.7945 9.7945v-9.7945-9.7945h-9.7945-9.7945zm22.603 0v9.7945 9.7945h9.7945 9.7945v-9.7945-9.7945h-9.7945-9.7945zm-497.26 22.603v19.589h9.7945 9.7945v-9.7946-9.7945h-9.7945-9.7945zm45.205 0v9.7945 9.7946h9.7945 9.7945v-9.7946-9.7945h-9.7945-9.7945zm45.205 0v9.7945 9.7946h9.7945 9.7945v-9.7946-9.7945h-9.7945-9.7945zm45.205 0v9.7945 9.7946h9.7945 9.7945v-9.7946-9.7945h-9.7945-9.7945zm90.411 0v9.7945 9.7946h9.7945 9.7945v-9.7946-9.7945h-9.7945-9.7945zm135.62 0v9.7945 9.7946h9.7945 9.7945v-9.7946-9.7945h-9.7945-9.7945zm45.206 0v9.7945 9.7946h9.7945 9.7945v-9.7946-9.7945h-9.7945-9.7945zm45.205 0v9.7945 9.7946h9.7945 9.7945v-9.7946-9.7945h-9.7945-9.7945zm-452.05 22.603v19.589h9.7945 9.7945v-9.7945-9.7945h-9.7945-9.7945zm22.603 0v9.7945 9.7945h9.7945 9.7945v-9.7945-9.7945h-9.7945-9.7945zm22.603 0v9.7945 9.7945h9.7945 9.7945v-9.7945-9.7945h-9.7945-9.7945zm45.205 0v9.7945 9.7945h9.7945 9.7945v-9.7945-9.7945h-9.7945-9.7945zm67.808 0v9.7945 9.7945h9.7945 9.7945v-9.7945-9.7945h-9.7945-9.7945zm22.603 0v9.7945 9.7945h9.7945 9.7945v-9.7945-9.7945h-9.7945-9.7945zm67.808 0v9.7945 9.7945h9.7945 9.7945v-9.7945-9.7945h-9.7945-9.7945zm22.603 0v9.7945 9.7945h9.7945 9.7945v-9.7945-9.7945h-9.7945-9.7945zm45.206 0v9.7945 9.7945h9.7945 9.7945v-9.7945-9.7945h-9.7945-9.7945zm22.603 0v9.7945 9.7945h9.7945 9.7945v-9.7945-9.7945h-9.7945-9.7945zm22.603 0v9.7945 9.7945h9.7945 9.7945v-9.7945-9.7945h-9.7945-9.7945zm45.206 0v9.7945 9.7945h9.7945 9.7945v-9.7945-9.7945h-9.7945-9.7945zm45.205 0v9.7945 9.7945h9.7945 9.7945v-9.7945-9.7945h-9.7945-9.7945z" fill="#fc5d1d"/>
</g>
</svg>
