<?xml version="1.0" standalone="no"?>
 <!DOCTYPE svg PUBLIC "-//W3C//DTD SVG 1.1//EN" 
 "http://www.w3.org/Graphics/SVG/1.1/DTD/svg11.dtd"> 
<svg xmlns="http://www.w3.org/2000/svg" version="1.1" 
    width="6.03758cm" height="2.21488cm" viewBox="0 0 23770 8720 ">
<title>SVG Picture created as wordclock-F.Paste.svg date 2018/10/21 23:31:25 </title>
  <desc>Picture generated by PCBNEW </desc>
<g style="fill:#000000; fill-opacity:1;stroke:#000000; stroke-opacity:1;
stroke-linecap:round; stroke-linejoin:round; "
 transform="translate(0 0) scale(1 1)">
</g>
<g style="fill:#840000; fill-opacity:0.0; 
stroke:#840000; stroke-width:-0.000393701; stroke-opacity:1; 
stroke-linecap:round; stroke-linejoin:round;">
</g>
<g style="fill:#840000; fill-opacity:0.0; 
stroke:#840000; stroke-width:0; stroke-opacity:1; 
stroke-linecap:round; stroke-linejoin:round;">
</g>
<g style="fill:#840000; fill-opacity:1.0; 
stroke:#840000; stroke-width:0; stroke-opacity:1; 
stroke-linecap:round; stroke-linejoin:round;">
<polyline style="fill-rule:evenodd;"
points="15570,2644
15570,3273
14665,3273
14665,2644
15570,2644
" /> 
<polyline style="fill-rule:evenodd;"
points="18050,2644
18050,3273
17145,3273
17145,2644
18050,2644
" /> 
<polyline style="fill-rule:evenodd;"
points="3750,7777
3316,7777
3316,6792
3750,6792
3750,7777
" /> 
<polyline style="fill-rule:evenodd;"
points="4537,7777
4104,7777
4104,6792
4537,6792
4537,7777
" /> 
<polyline style="fill-rule:evenodd;"
points="5324,7777
4891,7777
4891,6792
5324,6792
5324,7777
" /> 
<polyline style="fill-rule:evenodd;"
points="6112,7777
5679,7777
5679,6792
6112,6792
6112,7777
" /> 
<polyline style="fill-rule:evenodd;"
points="6899,7777
6466,7777
6466,6792
6899,6792
6899,7777
" /> 
<polyline style="fill-rule:evenodd;"
points="7687,7777
7253,7777
7253,6792
7687,6792
7687,7777
" /> 
<polyline style="fill-rule:evenodd;"
points="8474,7777
8041,7777
8041,6792
8474,6792
8474,7777
" /> 
<polyline style="fill-rule:evenodd;"
points="9261,7777
8828,7777
8828,6792
9261,6792
9261,7777
" /> 
<polyline style="fill-rule:evenodd;"
points="9261,1714
8828,1714
8828,729
9261,729
9261,1714
" /> 
<polyline style="fill-rule:evenodd;"
points="8474,1714
8041,1714
8041,729
8474,729
8474,1714
" /> 
<polyline style="fill-rule:evenodd;"
points="7687,1714
7253,1714
7253,729
7687,729
7687,1714
" /> 
<polyline style="fill-rule:evenodd;"
points="6899,1714
6466,1714
6466,729
6899,729
6899,1714
" /> 
<polyline style="fill-rule:evenodd;"
points="6112,1714
5679,1714
5679,729
6112,729
6112,1714
" /> 
<polyline style="fill-rule:evenodd;"
points="5324,1714
4891,1714
4891,729
5324,729
5324,1714
" /> 
<polyline style="fill-rule:evenodd;"
points="4537,1714
4104,1714
4104,729
4537,729
4537,1714
" /> 
<polyline style="fill-rule:evenodd;"
points="3750,1714
3316,1714
3316,729
3750,729
3750,1714
" /> 
<polyline style="fill-rule:evenodd;"
points="10206,6009
10206,6442
9222,6442
9222,6009
10206,6009
" /> 
<polyline style="fill-rule:evenodd;"
points="10206,5222
10206,5655
9222,5655
9222,5222
10206,5222
" /> 
<polyline style="fill-rule:evenodd;"
points="10206,4434
10206,4867
9222,4867
9222,4434
10206,4434
" /> 
<polyline style="fill-rule:evenodd;"
points="10206,3647
10206,4080
9222,4080
9222,3647
10206,3647
" /> 
<polyline style="fill-rule:evenodd;"
points="10206,2859
10206,3292
9222,3292
9222,2859
10206,2859
" /> 
<polyline style="fill-rule:evenodd;"
points="10206,2072
10206,2505
9222,2505
9222,2072
10206,2072
" /> 
<polyline style="fill-rule:evenodd;"
points="12262,7901
12006,7901
12006,7483
12262,7483
12262,7901
" /> 
<polyline style="fill-rule:evenodd;"
points="12636,7901
12380,7901
12380,7483
12636,7483
12636,7901
" /> 
<polyline style="fill-rule:evenodd;"
points="13010,7901
12754,7901
12754,7483
13010,7483
13010,7901
" /> 
<polyline style="fill-rule:evenodd;"
points="13010,7035
12754,7035
12754,6617
13010,6617
13010,7035
" /> 
<polyline style="fill-rule:evenodd;"
points="12262,7035
12006,7035
12006,6617
12262,6617
12262,7035
" /> 
<polyline style="fill-rule:evenodd;"
points="13554,3850
13062,3850
13062,3456
13554,3456
13554,3850
" /> 
<polyline style="fill-rule:evenodd;"
points="13554,3062
13062,3062
13062,2668
13554,2668
13554,3062
" /> 
<polyline style="fill-rule:evenodd;"
points="11354,2050
10862,2050
10862,1656
11354,1656
11354,2050
" /> 
<polyline style="fill-rule:evenodd;"
points="11354,1262
10862,1262
10862,868
11354,868
11354,1262
" /> 
<polyline style="fill-rule:evenodd;"
points="12154,2050
11662,2050
11662,1656
12154,1656
12154,2050
" /> 
<polyline style="fill-rule:evenodd;"
points="12154,1262
11662,1262
11662,868
12154,868
12154,1262
" /> 
<polyline style="fill-rule:evenodd;"
points="13954,7850
13462,7850
13462,7456
13954,7456
13954,7850
" /> 
<polyline style="fill-rule:evenodd;"
points="13954,7062
13462,7062
13462,6668
13954,6668
13954,7062
" /> 
<polyline style="fill-rule:evenodd;"
points="11062,6668
11554,6668
11554,7062
11062,7062
11062,6668
" /> 
<polyline style="fill-rule:evenodd;"
points="11062,7456
11554,7456
11554,7850
11062,7850
11062,7456
" /> 
<polyline style="fill-rule:evenodd;"
points="14764,5171
14252,5171
14252,4895
14764,4895
14764,5171
" /> 
<polyline style="fill-rule:evenodd;"
points="14764,4423
14252,4423
14252,4147
14764,4147
14764,4423
" /> 
<polyline style="fill-rule:evenodd;"
points="15564,5171
15052,5171
15052,4895
15564,4895
15564,5171
" /> 
<polyline style="fill-rule:evenodd;"
points="15564,4423
15052,4423
15052,4147
15564,4147
15564,4423
" /> 
<polyline style="fill-rule:evenodd;"
points="15852,4147
16364,4147
16364,4423
15852,4423
15852,4147
" /> 
<polyline style="fill-rule:evenodd;"
points="15852,4895
16364,4895
16364,5171
15852,5171
15852,4895
" /> 
<polyline style="fill-rule:evenodd;"
points="17164,5171
16652,5171
16652,4895
17164,4895
17164,5171
" /> 
<polyline style="fill-rule:evenodd;"
points="17164,4423
16652,4423
16652,4147
17164,4147
17164,4423
" /> 
<polyline style="fill-rule:evenodd;"
points="11364,5171
10852,5171
10852,4895
11364,4895
11364,5171
" /> 
<polyline style="fill-rule:evenodd;"
points="11364,4423
10852,4423
10852,4147
11364,4147
11364,4423
" /> 
<polyline style="fill-rule:evenodd;"
points="13364,5171
12852,5171
12852,4895
13364,4895
13364,5171
" /> 
<polyline style="fill-rule:evenodd;"
points="13364,4423
12852,4423
12852,4147
13364,4147
13364,4423
" /> 
<polyline style="fill-rule:evenodd;"
points="12364,5171
11852,5171
11852,4895
12364,4895
12364,5171
" /> 
<polyline style="fill-rule:evenodd;"
points="12364,4423
11852,4423
11852,4147
12364,4147
12364,4423
" /> 
<polyline style="fill-rule:evenodd;"
points="17964,5171
17452,5171
17452,4895
17964,4895
17964,5171
" /> 
<polyline style="fill-rule:evenodd;"
points="17964,4423
17452,4423
17452,4147
17964,4147
17964,4423
" /> 
<polyline style="fill-rule:evenodd;"
points="15537,6542
15537,6227
15891,6227
15891,6542
15537,6542
" /> 
<polyline style="fill-rule:evenodd;"
points="15537,7290
15537,6975
15891,6975
15891,7290
15537,7290
" /> 
<polyline style="fill-rule:evenodd;"
points="16325,6916
16325,6601
16679,6601
16679,6916
16325,6916
" /> 
<polyline style="fill-rule:evenodd;"
points="14552,6297
15064,6297
15064,6573
14552,6573
14552,6297
" /> 
<polyline style="fill-rule:evenodd;"
points="14552,7045
15064,7045
15064,7321
14552,7321
14552,7045
" /> 
<polyline style="fill-rule:evenodd;"
points="18252,4147
18764,4147
18764,4423
18252,4423
18252,4147
" /> 
<polyline style="fill-rule:evenodd;"
points="18252,4895
18764,4895
18764,5171
18252,5171
18252,4895
" /> 
</g> 
</svg>
