G04 #@! TF.FileFunction,Soldermask,Top*
%FSLAX46Y46*%
G04 Gerber Fmt 4.6, Leading zero omitted, Abs format (unit mm)*
G04 Created by KiCad (PCBNEW 4.0.7) date 10/21/18 23:31:01*
%MOMM*%
%LPD*%
G01*
G04 APERTURE LIST*
%ADD10C,0.100000*%
%ADD11C,2.082800*%
%ADD12R,2.501900X1.800860*%
%ADD13R,2.000000X2.000000*%
%ADD14C,2.000000*%
%ADD15R,1.500000X2.900000*%
%ADD16R,2.900000X1.500000*%
%ADD17R,1.050000X1.460000*%
%ADD18R,1.650000X1.400000*%
%ADD19R,1.700000X1.100000*%
%ADD20R,1.300000X1.200000*%
G04 APERTURE END LIST*
D10*
D11*
X83502500Y-103632000D03*
X86042500Y-103886000D03*
X88582500Y-103632000D03*
X91122500Y-103886000D03*
X93662500Y-103632000D03*
X96202500Y-103886000D03*
D12*
X88099900Y-107442000D03*
X94399100Y-107442000D03*
D13*
X102298500Y-107696000D03*
D14*
X104798500Y-107696000D03*
D15*
X58674000Y-118429000D03*
X60674000Y-118429000D03*
X62674000Y-118429000D03*
X64674000Y-118429000D03*
X66674000Y-118429000D03*
X68674000Y-118429000D03*
X70674000Y-118429000D03*
X72674000Y-118429000D03*
X72674000Y-103029000D03*
X70674000Y-103029000D03*
X68674000Y-103029000D03*
X66674000Y-103029000D03*
X64674000Y-103029000D03*
X62674000Y-103029000D03*
X60674000Y-103029000D03*
X58674000Y-103029000D03*
D16*
X74374000Y-115739000D03*
X74374000Y-113739000D03*
X74374000Y-111739000D03*
X74374000Y-109739000D03*
X74374000Y-107739000D03*
X74374000Y-105739000D03*
D17*
X80520500Y-119464000D03*
X81470500Y-119464000D03*
X82420500Y-119464000D03*
X82420500Y-117264000D03*
X80520500Y-117264000D03*
D18*
X83502500Y-109204000D03*
X83502500Y-107204000D03*
X77914500Y-104632000D03*
X77914500Y-102632000D03*
X79946500Y-104632000D03*
X79946500Y-102632000D03*
X84518500Y-119364000D03*
X84518500Y-117364000D03*
X78422500Y-117364000D03*
X78422500Y-119364000D03*
D19*
X86550500Y-112710000D03*
X86550500Y-110810000D03*
X88582500Y-112710000D03*
X88582500Y-110810000D03*
X90614500Y-110810000D03*
X90614500Y-112710000D03*
X92646500Y-112710000D03*
X92646500Y-110810000D03*
X77914500Y-112710000D03*
X77914500Y-110810000D03*
X82994500Y-112710000D03*
X82994500Y-110810000D03*
X80454500Y-112710000D03*
X80454500Y-110810000D03*
X94678500Y-112710000D03*
X94678500Y-110810000D03*
D20*
X89614500Y-116144000D03*
X89614500Y-118044000D03*
X91614500Y-117094000D03*
D19*
X87312500Y-116271000D03*
X87312500Y-118171000D03*
X96710500Y-110810000D03*
X96710500Y-112710000D03*
M02*
