<?xml version="1.0" standalone="no"?>
 <!DOCTYPE svg PUBLIC "-//W3C//DTD SVG 1.1//EN" 
 "http://www.w3.org/Graphics/SVG/1.1/DTD/svg11.dtd"> 
<svg xmlns="http://www.w3.org/2000/svg" version="1.1" 
    width="6.03758cm" height="2.21488cm" viewBox="0 0 23770 8720 ">
<title>SVG Picture created as wordclock-B.SilkS.svg date 2018/10/21 23:31:25 </title>
  <desc>Picture generated by PCBNEW </desc>
<g style="fill:#000000; fill-opacity:1;stroke:#000000; stroke-opacity:1;
stroke-linecap:round; stroke-linejoin:round; "
 transform="translate(0 0) scale(1 1)">
</g>
<g style="fill:#840084; fill-opacity:0.0; 
stroke:#840084; stroke-width:-0.000393701; stroke-opacity:1; 
stroke-linecap:round; stroke-linejoin:round;">
</g>
<g style="fill:#840084; fill-opacity:0.0; 
stroke:#840084; stroke-width:196.85; stroke-opacity:1; 
stroke-linecap:round; stroke-linejoin:round;">
<path d="M18981 2972
L18841 3019
L18794 3066
L18747 3160
L18747 3300
L18794 3394
L18841 3441
L18934 3488
L19309 3488
L19309 2503
L18981 2503
L18887 2550
L18841 2597
L18794 2691
L18794 2785
L18841 2878
L18887 2925
L18981 2972
L19309 2972
" />
<path d="M18325 3488
L18325 2503
" />
<path d="M17997 2503
L17434 2503
" />
<path d="M17716 3488
L17716 2503
" />
<path d="M16638 3488
L17106 3488
L17106 2503
" />
<path d="M16356 3206
L15888 3206
" />
<path d="M16450 3488
L16122 2503
L15794 3488
" />
<path d="M15466 3488
L15466 2503
" />
<path d="M14435 3488
L14763 3019
" />
<path d="M14997 3488
L14997 2503
L14622 2503
L14529 2550
L14482 2597
L14435 2691
L14435 2831
L14482 2925
L14529 2972
L14622 3019
L14997 3019
" />
<path d="M13357 2503
L13123 3488
L12935 2785
L12748 3488
L12513 2503
" />
<path d="M11951 2503
L11763 2503
L11670 2550
L11576 2644
L11529 2831
L11529 3160
L11576 3347
L11670 3441
L11763 3488
L11951 3488
L12045 3441
L12138 3347
L12185 3160
L12185 2831
L12138 2644
L12045 2550
L11951 2503
" />
<path d="M10545 3488
L10873 3019
" />
<path d="M11107 3488
L11107 2503
L10732 2503
L10638 2550
L10592 2597
L10545 2691
L10545 2831
L10592 2925
L10638 2972
L10732 3019
L11107 3019
" />
<path d="M10123 3488
L10123 2503
L9889 2503
L9748 2550
L9654 2644
L9607 2738
L9560 2925
L9560 3066
L9607 3253
L9654 3347
L9748 3441
L9889 3488
L10123 3488
" />
<path d="M8576 3394
L8623 3441
L8764 3488
L8857 3488
L8998 3441
L9092 3347
L9139 3253
L9186 3066
L9186 2925
L9139 2738
L9092 2644
L8998 2550
L8857 2503
L8764 2503
L8623 2550
L8576 2597
" />
<path d="M7686 3488
L8154 3488
L8154 2503
" />
<path d="M7170 2503
L6983 2503
L6889 2550
L6795 2644
L6748 2831
L6748 3160
L6795 3347
L6889 3441
L6983 3488
L7170 3488
L7264 3441
L7358 3347
L7404 3160
L7404 2831
L7358 2644
L7264 2550
L7170 2503
" />
<path d="M5764 3394
L5811 3441
L5952 3488
L6045 3488
L6186 3441
L6280 3347
L6326 3253
L6373 3066
L6373 2925
L6326 2738
L6280 2644
L6186 2550
L6045 2503
L5952 2503
L5811 2550
L5764 2597
" />
<path d="M5342 3488
L5342 2503
" />
<path d="M4780 3488
L5202 2925
" />
<path d="M4780 2503
L5342 3066
" />
<path d="M16849 4270
L16802 4223
L16708 4177
L16474 4177
L16380 4223
L16333 4270
L16286 4364
L16286 4458
L16333 4598
L16895 5161
L16286 5161
" />
<path d="M15677 4177
L15583 4177
L15489 4223
L15443 4270
L15396 4364
L15349 4552
L15349 4786
L15396 4973
L15443 5067
L15489 5114
L15583 5161
L15677 5161
L15771 5114
L15817 5067
L15864 4973
L15911 4786
L15911 4552
L15864 4364
L15817 4270
L15771 4223
L15677 4177
" />
<path d="M14411 5161
L14974 5161
" />
<path d="M14693 5161
L14693 4177
L14786 4317
L14880 4411
L14974 4458
" />
<path d="M13849 4598
L13943 4552
L13990 4505
L14036 4411
L14036 4364
L13990 4270
L13943 4223
L13849 4177
L13662 4177
L13568 4223
L13521 4270
L13474 4364
L13474 4411
L13521 4505
L13568 4552
L13662 4598
L13849 4598
L13943 4645
L13990 4692
L14036 4786
L14036 4973
L13990 5067
L13943 5114
L13849 5161
L13662 5161
L13568 5114
L13521 5067
L13474 4973
L13474 4786
L13521 4692
L13568 4645
L13662 4598
" />
<path d="M13052 4786
L12302 4786
" />
<path d="M11318 5161
L11880 5161
" />
<path d="M11599 5161
L11599 4177
L11693 4317
L11787 4411
L11880 4458
" />
<path d="M10709 4177
L10615 4177
L10521 4223
L10474 4270
L10428 4364
L10381 4552
L10381 4786
L10428 4973
L10474 5067
L10521 5114
L10615 5161
L10709 5161
L10802 5114
L10849 5067
L10896 4973
L10943 4786
L10943 4552
L10896 4364
L10849 4270
L10802 4223
L10709 4177
" />
<path d="M9959 4786
L9209 4786
" />
<path d="M8787 4270
L8740 4223
L8647 4177
L8412 4177
L8318 4223
L8272 4270
L8225 4364
L8225 4458
L8272 4598
L8834 5161
L8225 5161
" />
<path d="M7287 5161
L7850 5161
" />
<path d="M7569 5161
L7569 4177
L7662 4317
L7756 4411
L7850 4458
" />
</g>
<g style="fill:#840084; fill-opacity:0.0; 
stroke:#840084; stroke-width:78.7402; stroke-opacity:1; 
stroke-linecap:round; stroke-linejoin:round;">
<path d="M6430 5737
L6617 5737
L6617 5343
" />
<path d="M6299 5737
L6299 5343
L6205 5343
L6149 5362
L6111 5400
L6092 5437
L6074 5512
L6074 5568
L6092 5643
L6111 5681
L6149 5718
L6205 5737
L6299 5737
" />
<path d="M5680 5737
L5811 5550
" />
<path d="M5905 5737
L5905 5343
L5755 5343
L5717 5362
L5699 5381
L5680 5418
L5680 5475
L5699 5512
L5717 5531
L5755 5550
L5905 5550
" />
<path d="M8780 5737
L8967 5737
L8967 5343
" />
<path d="M8649 5737
L8649 5343
L8555 5343
L8499 5362
L8461 5400
L8442 5437
L8424 5512
L8424 5568
L8442 5643
L8461 5681
L8499 5718
L8555 5737
L8649 5737
" />
<path d="M8030 5737
L8161 5550
" />
<path d="M8255 5737
L8255 5343
L8105 5343
L8067 5362
L8049 5381
L8030 5418
L8030 5475
L8049 5512
L8067 5531
L8105 5550
L8255 5550
" />
<path d="M12308 5362
L12345 5343
L12402 5343
L12458 5362
L12495 5400
L12514 5437
L12533 5512
L12533 5568
L12514 5643
L12495 5681
L12458 5718
L12402 5737
L12364 5737
L12308 5718
L12289 5700
L12289 5568
L12364 5568
" />
<path d="M12120 5737
L12120 5343
L11895 5737
L11895 5343
" />
<path d="M11708 5737
L11708 5343
L11614 5343
L11558 5362
L11521 5400
L11502 5437
L11483 5512
L11483 5568
L11502 5643
L11521 5681
L11558 5718
L11614 5737
L11708 5737
" />
<path d="M14699 5737
L14699 5343
L14605 5343
L14549 5362
L14511 5400
L14492 5437
L14474 5512
L14474 5568
L14492 5643
L14511 5681
L14549 5718
L14605 5737
L14699 5737
" />
<path d="M14324 5625
L14136 5625
" />
<path d="M14361 5737
L14230 5343
L14099 5737
" />
<path d="M14024 5343
L13799 5343
" />
<path d="M13911 5737
L13911 5343
" />
<path d="M13686 5625
L13499 5625
" />
<path d="M13724 5737
L13592 5343
L13461 5737
" />
<path d="M16283 5343
L16470 5343
L16489 5531
L16470 5512
L16433 5493
L16339 5493
L16302 5512
L16283 5531
L16264 5568
L16264 5662
L16283 5700
L16302 5718
L16339 5737
L16433 5737
L16470 5718
L16489 5700
" />
<path d="M16152 5343
L16020 5737
L15889 5343
" />
<path d="M19983 5343
L20170 5343
L20189 5531
L20170 5512
L20133 5493
L20039 5493
L20002 5512
L19983 5531
L19964 5568
L19964 5662
L19983 5700
L20002 5718
L20039 5737
L20133 5737
L20170 5718
L20189 5700
" />
<path d="M19852 5343
L19720 5737
L19589 5343
" />
<path d="M22208 5362
L22245 5343
L22302 5343
L22358 5362
L22395 5400
L22414 5437
L22433 5512
L22433 5568
L22414 5643
L22395 5681
L22358 5718
L22302 5737
L22264 5737
L22208 5718
L22189 5700
L22189 5568
L22264 5568
" />
<path d="M22020 5737
L22020 5343
L21795 5737
L21795 5343
" />
<path d="M21608 5737
L21608 5343
L21514 5343
L21458 5362
L21421 5400
L21402 5437
L21383 5512
L21383 5568
L21402 5643
L21421 5681
L21458 5718
L21514 5737
L21608 5737
" />
</g>
<g style="fill:#840084; fill-opacity:0.0; 
stroke:#840084; stroke-width:50; stroke-opacity:1; 
stroke-linecap:round; stroke-linejoin:round;">
<path d="M7388 5928
L7388 6099
L7399 6133
L7422 6156
L7457 6168
L7479 6168
" />
<path d="M7148 6168
L7285 6168
" />
<path d="M7217 6168
L7217 5928
L7239 5962
L7262 5985
L7285 5996
" />
</g>
<g style="fill:#840084; fill-opacity:0.0; 
stroke:#840084; stroke-width:78.7402; stroke-opacity:1; 
stroke-linecap:round; stroke-linejoin:round;">
<path d="M5506 6927
L5506 6740
L5112 6740
" />
<path d="M5506 7058
L5112 7058
L5112 7152
L5131 7208
L5169 7246
L5206 7265
L5281 7283
L5337 7283
L5412 7265
L5450 7246
L5487 7208
L5506 7152
L5506 7058
" />
<path d="M5506 7677
L5319 7546
" />
<path d="M5506 7452
L5112 7452
L5112 7602
L5131 7640
L5150 7658
L5187 7677
L5244 7677
L5281 7658
L5300 7640
L5319 7602
L5319 7452
" />
</g>
<g style="fill:#840084; fill-opacity:0.0; 
stroke:#840084; stroke-width:50; stroke-opacity:1; 
stroke-linecap:round; stroke-linejoin:round;">
<path d="M20988 5928
L20988 6099
L20999 6133
L21022 6156
L21057 6168
L21079 6168
" />
<path d="M20897 5928
L20748 5928
L20828 6019
L20794 6019
L20771 6030
L20759 6042
L20748 6065
L20748 6122
L20759 6145
L20771 6156
L20794 6168
L20862 6168
L20885 6156
L20897 6145
" />
</g>
<g style="fill:#840084; fill-opacity:0.0; 
stroke:#840084; stroke-width:78.7402; stroke-opacity:1; 
stroke-linecap:round; stroke-linejoin:round;">
<path d="M19206 5680
L18812 5680
L18812 5830
L18831 5867
L18850 5886
L18887 5905
L18944 5905
L18981 5886
L19000 5867
L19019 5830
L19019 5680
" />
<path d="M18812 6148
L18812 6223
L18831 6261
L18869 6298
L18944 6317
L19075 6317
L19150 6298
L19187 6261
L19206 6223
L19206 6148
L19187 6111
L19150 6073
L19075 6055
L18944 6055
L18869 6073
L18831 6111
L18812 6148
" />
<path d="M18812 6448
L19206 6542
L18925 6617
L19206 6692
L18812 6786
" />
<path d="M19000 6936
L19000 7067
" />
<path d="M19206 7123
L19206 6936
L18812 6936
L18812 7123
" />
<path d="M19206 7517
L19019 7386
" />
<path d="M19206 7292
L18812 7292
L18812 7442
L18831 7480
L18850 7498
L18887 7517
L18944 7517
L18981 7498
L19000 7480
L19019 7442
L19019 7292
" />
<path d="M19206 7986
L18812 7986
" />
<path d="M19206 8173
L18812 8173
L19206 8398
L18812 8398
" />
</g>
<g style="fill:#840084; fill-opacity:0.0; 
stroke:#840084; stroke-width:50; stroke-opacity:1; 
stroke-linecap:round; stroke-linejoin:round;">
<path d="M15288 5928
L15288 6099
L15299 6133
L15322 6156
L15357 6168
L15379 6168
" />
<path d="M15071 6008
L15071 6168
" />
<path d="M15128 5916
L15185 6088
L15037 6088
" />
</g>
<g style="fill:#840084; fill-opacity:0.0; 
stroke:#840084; stroke-width:78.7402; stroke-opacity:1; 
stroke-linecap:round; stroke-linejoin:round;">
<path d="M11286 5771
L11286 5584
L10892 5584
" />
<path d="M11080 5902
L11080 6033
" />
<path d="M11286 6090
L11286 5902
L10892 5902
L10892 6090
" />
<path d="M11286 6258
L10892 6258
L10892 6352
L10911 6408
L10949 6446
L10986 6465
L11061 6483
L11117 6483
L11192 6465
L11230 6446
L11267 6408
L11286 6352
L11286 6258
" />
<path d="M11267 6933
L11286 6990
L11286 7083
L11267 7121
L11249 7140
L11211 7158
L11174 7158
L11136 7140
L11117 7121
L11099 7083
L11080 7008
L11061 6971
L11042 6952
L11005 6933
L10967 6933
L10930 6952
L10911 6971
L10892 7008
L10892 7102
L10911 7158
" />
<path d="M10892 7271
L10892 7496
" />
<path d="M11286 7383
L10892 7383
" />
<path d="M11286 7852
L11099 7721
" />
<path d="M11286 7627
L10892 7627
L10892 7777
L10911 7814
L10930 7833
L10967 7852
L11024 7852
L11061 7833
L11080 7814
L11099 7777
L11099 7627
" />
<path d="M11286 8021
L10892 8021
" />
<path d="M11286 8208
L10892 8208
L10892 8358
L10911 8396
L10930 8414
L10967 8433
L11024 8433
L11061 8414
L11080 8396
L11099 8358
L11099 8208
" />
</g>
<g style="fill:#840084; fill-opacity:0.0; 
stroke:#840084; stroke-width:70; stroke-opacity:1; 
stroke-linecap:round; stroke-linejoin:round;">
<path d="M8908 5817
L8908 8301
" />
<path d="M8908 8301
L8658 8301
" />
<path d="M8908 5817
L8658 5817
" />
<path d="M7508 5817
L7108 5817
" />
<path d="M7108 8301
L7508 8301
" />
<path d="M5708 8301
L5708 5817
" />
<path d="M5708 8301
L5958 8301
" />
<path d="M5708 5817
L5958 5817
" />
<path d="M19308 8301
L19308 5817
" />
<path d="M19308 5817
L19558 5817
" />
<path d="M19308 8301
L19558 8301
" />
<path d="M20708 8301
L21108 8301
" />
<path d="M21108 5817
L20708 5817
" />
<path d="M22508 5817
L22508 8301
" />
<path d="M22508 5817
L22258 5817
" />
<path d="M22508 8301
L22258 8301
" />
<path d="M16708 5817
L16708 8301
" />
<path d="M16708 8301
L16458 8301
" />
<path d="M16708 5817
L16458 5817
" />
<path d="M15308 5817
L14908 5817
" />
<path d="M13308 5817
L12908 5817
" />
<path d="M14908 8301
L15308 8301
" />
<path d="M12908 8301
L13308 8301
" />
<path d="M11508 8301
L11508 5817
" />
<path d="M11508 8301
L11758 8301
" />
<path d="M11508 5817
L11758 5817
" />
</g> 
</svg>
