<?xml version="1.0" standalone="no"?>
 <!DOCTYPE svg PUBLIC "-//W3C//DTD SVG 1.1//EN" 
 "http://www.w3.org/Graphics/SVG/1.1/DTD/svg11.dtd"> 
<svg xmlns="http://www.w3.org/2000/svg" version="1.1" 
    width="6.03758cm" height="2.21488cm" viewBox="0 0 23770 8720 ">
<title>SVG Picture created as wordclock-F.SilkS.svg date 2018/10/21 23:31:25 </title>
  <desc>Picture generated by PCBNEW </desc>
<g style="fill:#000000; fill-opacity:1;stroke:#000000; stroke-opacity:1;
stroke-linecap:round; stroke-linejoin:round; "
 transform="translate(0 0) scale(1 1)">
</g>
<g style="fill:#008484; fill-opacity:0.0; 
stroke:#008484; stroke-width:-0.000393701; stroke-opacity:1; 
stroke-linecap:round; stroke-linejoin:round;">
</g>
<g style="fill:#008484; fill-opacity:0.0; 
stroke:#008484; stroke-width:50; stroke-opacity:1; 
stroke-linecap:round; stroke-linejoin:round;">
<path d="M18145 379
L18122 368
L18088 368
L18054 379
L18031 402
L18019 425
L18008 470
L18008 505
L18019 550
L18031 573
L18054 596
L18088 608
L18111 608
L18145 596
L18157 585
L18157 505
L18111 505
" />
<path d="M18259 608
L18259 368
L18397 608
L18397 368
" />
<path d="M18511 608
L18511 368
L18568 368
L18602 379
L18625 402
L18637 425
L18648 470
L18648 505
L18637 550
L18625 573
L18602 596
L18568 608
L18511 608
" />
<path d="M15991 368
L16139 368
L16059 459
L16094 459
L16117 470
L16128 482
L16139 505
L16139 562
L16128 585
L16117 596
L16094 608
L16025 608
L16002 596
L15991 585
" />
<path d="M16208 368
L16288 608
L16368 368
" />
<path d="M16425 368
L16574 368
L16494 459
L16528 459
L16551 470
L16562 482
L16574 505
L16574 562
L16562 585
L16551 596
L16528 608
L16459 608
L16437 596
L16425 585
" />
<path d="M14985 368
L15122 368
" />
<path d="M15054 608
L15054 368
" />
<path d="M15179 368
L15339 608
" />
<path d="M15339 368
L15179 608
" />
<path d="M15431 608
L15431 368
L15488 368
L15522 379
L15545 402
L15557 425
L15568 470
L15568 505
L15557 550
L15545 573
L15522 596
L15488 608
L15431 608
" />
<path d="M14108 608
L14028 493
" />
<path d="M13971 608
L13971 368
L14062 368
L14085 379
L14097 390
L14108 413
L14108 448
L14097 470
L14085 482
L14062 493
L13971 493
" />
<path d="M14188 368
L14348 608
" />
<path d="M14348 368
L14188 608
" />
<path d="M14439 608
L14439 368
L14497 368
L14531 379
L14554 402
L14565 425
L14577 470
L14577 505
L14565 550
L14554 573
L14531 596
L14497 608
L14439 608
" />
<path d="M13034 608
L13034 368
L13091 368
L13125 379
L13148 402
L13159 425
L13171 470
L13171 505
L13159 550
L13148 573
L13125 596
L13091 608
L13034 608
" />
<path d="M13239 368
L13377 368
" />
<path d="M13308 608
L13308 368
" />
<path d="M13594 608
L13514 493
" />
<path d="M13457 608
L13457 368
L13548 368
L13571 379
L13582 390
L13594 413
L13594 448
L13582 470
L13571 482
L13548 493
L13457 493
" />
<path d="M12917 2279
L13088 2279
L13122 2290
L13145 2313
L13157 2348
L13157 2370
" />
<path d="M12939 2176
L12928 2165
L12917 2142
L12917 2085
L12928 2062
L12939 2050
L12962 2039
L12985 2039
L13019 2050
L13157 2188
L13157 2039
" />
<path d="M15274 2242
L15194 2242
" />
<path d="M15194 2368
L15194 2128
L15308 2128
" />
<path d="M15365 2128
L15502 2128
" />
<path d="M15434 2368
L15434 2128
" />
<path d="M15582 2368
L15582 2128
L15639 2128
L15674 2139
L15697 2162
L15708 2185
L15719 2230
L15719 2265
L15708 2310
L15697 2333
L15674 2356
L15639 2368
L15582 2368
" />
<path d="M15822 2368
L15822 2128
" />
<path d="M14225 2856
L14259 2868
L14317 2868
L14339 2856
L14351 2845
L14362 2822
L14362 2799
L14351 2776
L14339 2765
L14317 2753
L14271 2742
L14248 2730
L14237 2719
L14225 2696
L14225 2673
L14237 2650
L14248 2639
L14271 2628
L14328 2628
L14362 2639
" />
<path d="M14591 2868
L14454 2868
" />
<path d="M14522 2868
L14522 2628
L14499 2662
L14477 2685
L14454 2696
" />
<path d="M16619 2418
L16619 2178
L16711 2178
L16734 2189
L16745 2200
L16757 2223
L16757 2258
L16745 2280
L16734 2292
L16711 2303
L16619 2303
" />
<path d="M16997 2418
L16917 2303
" />
<path d="M16859 2418
L16859 2178
L16951 2178
L16974 2189
L16985 2200
L16997 2223
L16997 2258
L16985 2280
L16974 2292
L16951 2303
L16859 2303
" />
<path d="M17145 2178
L17191 2178
L17214 2189
L17237 2212
L17248 2258
L17248 2338
L17237 2383
L17214 2406
L17191 2418
L17145 2418
L17122 2406
L17099 2383
L17088 2338
L17088 2258
L17099 2212
L17122 2189
L17145 2178
" />
<path d="M17477 2189
L17454 2178
L17419 2178
L17385 2189
L17362 2212
L17351 2235
L17339 2280
L17339 2315
L17351 2360
L17362 2383
L17385 2406
L17419 2418
L17442 2418
L17477 2406
L17488 2395
L17488 2315
L17442 2315
" />
<path d="M17728 2418
L17648 2303
" />
<path d="M17591 2418
L17591 2178
L17682 2178
L17705 2189
L17717 2200
L17728 2223
L17728 2258
L17717 2280
L17705 2292
L17682 2303
L17591 2303
" />
<path d="M17819 2349
L17934 2349
" />
<path d="M17797 2418
L17877 2178
L17957 2418
" />
<path d="M18037 2418
L18037 2178
L18117 2349
L18197 2178
L18197 2418
" />
</g>
<g style="fill:#C2C200; fill-opacity:0.0; 
stroke:#C2C200; stroke-width:50; stroke-opacity:1; 
stroke-linecap:round; stroke-linejoin:round;">
</g>
<g style="fill:#C2C200; fill-opacity:0.0; 
stroke:#C2C200; stroke-width:59.0551; stroke-opacity:1; 
stroke-linecap:round; stroke-linejoin:round;">
<path d="M21134 1109
L21116 1128
L21059 1147
L21022 1147
L20966 1128
L20928 1090
L20910 1053
L20891 978
L20891 922
L20910 847
L20928 809
L20966 772
L21022 753
L21059 753
L21116 772
L21134 790
" />
<path d="M21472 753
L21397 753
L21359 772
L21341 790
L21303 847
L21284 922
L21284 1072
L21303 1109
L21322 1128
L21359 1147
L21434 1147
L21472 1128
L21491 1109
L21509 1072
L21509 978
L21491 940
L21472 922
L21434 903
L21359 903
L21322 922
L21303 940
L21284 978
" />
<path d="M5733 3293
L5733 3612
L5752 3650
L5770 3668
L5808 3687
L5883 3687
L5920 3668
L5939 3650
L5958 3612
L5958 3293
" />
<path d="M6352 3687
L6127 3687
" />
<path d="M6239 3687
L6239 3293
L6202 3350
L6164 3387
L6127 3406
" />
<path d="M12292 6459
L12611 6459
L12649 6440
L12667 6421
L12686 6384
L12686 6309
L12667 6271
L12649 6253
L12611 6234
L12292 6234
" />
<path d="M12330 6065
L12311 6046
L12292 6009
L12292 5915
L12311 5878
L12330 5859
L12367 5840
L12405 5840
L12461 5859
L12686 6084
L12686 5840
" />
<path d="M14049 3325
L14067 3343
L14086 3400
L14086 3437
L14067 3493
L14030 3531
L13992 3550
L13917 3568
L13861 3568
L13786 3550
L13749 3531
L13711 3493
L13692 3437
L13692 3400
L13711 3343
L13730 3325
" />
<path d="M14086 2950
L14086 3175
" />
<path d="M14086 3062
L13692 3062
L13749 3100
L13786 3137
L13805 3175
" />
<path d="M11249 2625
L11267 2643
L11286 2700
L11286 2737
L11267 2793
L11230 2831
L11192 2850
L11117 2868
L11061 2868
L10986 2850
L10949 2831
L10911 2793
L10892 2737
L10892 2700
L10911 2643
L10930 2625
" />
<path d="M10930 2475
L10911 2456
L10892 2418
L10892 2325
L10911 2287
L10930 2268
L10967 2250
L11005 2250
L11061 2268
L11286 2493
L11286 2250
" />
<path d="M12029 2625
L12047 2643
L12066 2700
L12066 2737
L12047 2793
L12010 2831
L11972 2850
L11897 2868
L11841 2868
L11766 2850
L11729 2831
L11691 2793
L11672 2737
L11672 2700
L11691 2643
L11710 2625
" />
<path d="M11672 2493
L11672 2250
L11822 2381
L11822 2325
L11841 2287
L11860 2268
L11897 2250
L11991 2250
L12029 2268
L12047 2287
L12066 2325
L12066 2437
L12047 2475
L12029 2493
" />
<path d="M13849 6175
L13867 6193
L13886 6250
L13886 6287
L13867 6343
L13830 6381
L13792 6400
L13717 6418
L13661 6418
L13586 6400
L13549 6381
L13511 6343
L13492 6287
L13492 6250
L13511 6193
L13530 6175
" />
<path d="M13624 5837
L13886 5837
" />
<path d="M13474 5931
L13755 6025
L13755 5781
" />
<path d="M11449 6225
L11467 6243
L11486 6300
L11486 6337
L11467 6393
L11430 6431
L11392 6450
L11317 6468
L11261 6468
L11186 6450
L11149 6431
L11111 6393
L11092 6337
L11092 6300
L11111 6243
L11130 6225
" />
<path d="M11092 5868
L11092 6056
L11280 6075
L11261 6056
L11242 6018
L11242 5925
L11261 5887
L11280 5868
L11317 5850
L11411 5850
L11449 5868
L11467 5887
L11486 5925
L11486 6018
L11467 6056
L11449 6075
" />
<path d="M14686 3725
L14499 3856
" />
<path d="M14686 3950
L14292 3950
L14292 3800
L14311 3762
L14330 3743
L14367 3725
L14424 3725
L14461 3743
L14480 3762
L14499 3800
L14499 3950
" />
<path d="M14686 3350
L14686 3575
" />
<path d="M14686 3462
L14292 3462
L14349 3500
L14386 3537
L14405 3575
" />
<path d="M15486 3725
L15299 3856
" />
<path d="M15486 3950
L15092 3950
L15092 3800
L15111 3762
L15130 3743
L15167 3725
L15224 3725
L15261 3743
L15280 3762
L15299 3800
L15299 3950
" />
<path d="M15130 3575
L15111 3556
L15092 3518
L15092 3425
L15111 3387
L15130 3368
L15167 3350
L15205 3350
L15261 3368
L15486 3593
L15486 3350
" />
<path d="M16286 3725
L16099 3856
" />
<path d="M16286 3950
L15892 3950
L15892 3800
L15911 3762
L15930 3743
L15967 3725
L16024 3725
L16061 3743
L16080 3762
L16099 3800
L16099 3950
" />
<path d="M15892 3593
L15892 3350
L16042 3481
L16042 3425
L16061 3387
L16080 3368
L16117 3350
L16211 3350
L16249 3368
L16267 3387
L16286 3425
L16286 3537
L16267 3575
L16249 3593
" />
<path d="M17086 3725
L16899 3856
" />
<path d="M17086 3950
L16692 3950
L16692 3800
L16711 3762
L16730 3743
L16767 3725
L16824 3725
L16861 3743
L16880 3762
L16899 3800
L16899 3950
" />
<path d="M16824 3387
L17086 3387
" />
<path d="M16674 3481
L16955 3575
L16955 3331
" />
<path d="M11286 3875
L11099 4006
" />
<path d="M11286 4100
L10892 4100
L10892 3950
L10911 3912
L10930 3893
L10967 3875
L11024 3875
L11061 3893
L11080 3912
L11099 3950
L11099 4100
" />
<path d="M10892 3518
L10892 3706
L11080 3725
L11061 3706
L11042 3668
L11042 3575
L11061 3537
L11080 3518
L11117 3500
L11211 3500
L11249 3518
L11267 3537
L11286 3575
L11286 3668
L11267 3706
L11249 3725
" />
<path d="M12886 3875
L12699 4006
" />
<path d="M12886 4100
L12492 4100
L12492 3950
L12511 3912
L12530 3893
L12567 3875
L12624 3875
L12661 3893
L12680 3912
L12699 3950
L12699 4100
" />
<path d="M12492 3537
L12492 3612
L12511 3650
L12530 3668
L12586 3706
L12661 3725
L12811 3725
L12849 3706
L12867 3687
L12886 3650
L12886 3575
L12867 3537
L12849 3518
L12811 3500
L12717 3500
L12680 3518
L12661 3537
L12642 3575
L12642 3650
L12661 3687
L12680 3706
L12717 3725
" />
<path d="M12286 3875
L12099 4006
" />
<path d="M12286 4100
L11892 4100
L11892 3950
L11911 3912
L11930 3893
L11967 3875
L12024 3875
L12061 3893
L12080 3912
L12099 3950
L12099 4100
" />
<path d="M11892 3743
L11892 3481
L12286 3650
" />
<path d="M17936 3725
L17749 3856
" />
<path d="M17936 3950
L17542 3950
L17542 3800
L17561 3762
L17580 3743
L17617 3725
L17674 3725
L17711 3743
L17730 3762
L17749 3800
L17749 3950
" />
<path d="M17711 3500
L17692 3537
L17674 3556
L17636 3575
L17617 3575
L17580 3556
L17561 3537
L17542 3500
L17542 3425
L17561 3387
L17580 3368
L17617 3350
L17636 3350
L17674 3368
L17692 3387
L17711 3425
L17711 3500
L17730 3537
L17749 3556
L17786 3575
L17861 3575
L17899 3556
L17917 3537
L17936 3500
L17936 3425
L17917 3387
L17899 3368
L17861 3350
L17786 3350
L17749 3368
L17730 3387
L17711 3425
" />
<path d="M15920 6025
L15883 6006
L15845 5968
L15789 5912
L15752 5893
L15714 5893
" />
<path d="M15733 5987
L15695 5968
L15658 5931
L15639 5856
L15639 5725
L15658 5650
L15695 5612
L15733 5593
L15808 5593
L15845 5612
L15883 5650
L15902 5725
L15902 5856
L15883 5931
L15845 5968
L15808 5987
L15733 5987
" />
<path d="M16277 5987
L16052 5987
" />
<path d="M16164 5987
L16164 5593
L16127 5650
L16089 5687
L16052 5706
" />
<path d="M14986 5925
L14799 6056
" />
<path d="M14986 6150
L14592 6150
L14592 6000
L14611 5962
L14630 5943
L14667 5925
L14724 5925
L14761 5943
L14780 5962
L14799 6000
L14799 6150
" />
<path d="M14986 5737
L14986 5662
L14967 5625
L14949 5606
L14892 5568
L14817 5550
L14667 5550
L14630 5568
L14611 5587
L14592 5625
L14592 5700
L14611 5737
L14630 5756
L14667 5775
L14761 5775
L14799 5756
L14817 5737
L14836 5700
L14836 5625
L14817 5587
L14799 5568
L14761 5550
" />
<path d="M18686 3712
L18499 3843
" />
<path d="M18686 3937
L18292 3937
L18292 3787
L18311 3750
L18330 3731
L18367 3712
L18424 3712
L18461 3731
L18480 3750
L18499 3787
L18499 3937
" />
<path d="M18686 3337
L18686 3562
" />
<path d="M18686 3450
L18292 3450
L18349 3487
L18386 3525
L18405 3562
" />
<path d="M18292 3093
L18292 3056
L18311 3018
L18330 3000
L18367 2981
L18442 2962
L18536 2962
L18611 2981
L18649 3000
L18667 3018
L18686 3056
L18686 3093
L18667 3131
L18649 3150
L18611 3168
L18536 3187
L18442 3187
L18367 3168
L18330 3150
L18311 3131
L18292 3093
" />
</g>
<g style="fill:#008484; fill-opacity:0.0; 
stroke:#008484; stroke-width:59.0551; stroke-opacity:1; 
stroke-linecap:round; stroke-linejoin:round;">
</g>
<g style="fill:#008484; fill-opacity:0.0; 
stroke:#008484; stroke-width:50; stroke-opacity:1; 
stroke-linecap:round; stroke-linejoin:round;">
<path d="M12808 259
L12808 2459
" />
<path d="M18808 259
L18808 2459
" />
<path d="M18808 259
L12808 259
" />
<path d="M18808 2459
L18308 2459
" />
<path d="M18308 2459
L13308 2459
" />
<path d="M13308 2459
L12808 2459
" />
<path d="M13308 2459
L13308 1959
" />
<path d="M13308 1959
L18308 1959
" />
<path d="M18308 1959
L18308 2459
" />
</g>
<g style="fill:#008484; fill-opacity:0.0; 
stroke:#008484; stroke-width:80; stroke-opacity:1; 
stroke-linecap:round; stroke-linejoin:round;">
<path d="M13058 959
L13558 959
" />
<path d="M13558 959
L13058 959
" />
<path d="M15768 2664
L16948 2664
" />
<path d="M16948 3254
L15768 3254
" />
<path d="M15768 3254
L15768 2664
" />
<path d="M16948 3254
L16948 2664
" />
</g>
<g style="fill:#008484; fill-opacity:0.0; 
stroke:#008484; stroke-width:47.2441; stroke-opacity:1; 
stroke-linecap:round; stroke-linejoin:round;">
<circle cx="21200.6" cy="3059.45" r="1610.24" /> 
<path d="M19842 3059
L20314 3059
" />
<path d="M20078 2803
L20078 3315
" />
</g>
<g style="fill:#008484; fill-opacity:0.0; 
stroke:#008484; stroke-width:60; stroke-opacity:1; 
stroke-linecap:round; stroke-linejoin:round;">
<path d="M9383 7409
L9683 7409
" />
<path d="M9683 7409
L9683 1109
" />
<path d="M9683 1109
L9383 1109
" />
</g>
<g style="fill:#008484; fill-opacity:0.0; 
stroke:#008484; stroke-width:47.2441; stroke-opacity:1; 
stroke-linecap:round; stroke-linejoin:round;">
<path d="M13142 7613
L13142 6905
" />
<path d="M11874 6905
L11874 7869
" />
<path d="M12973 3062
L12973 3456
" />
<path d="M13643 3456
L13643 3062
" />
<path d="M10773 1262
L10773 1656
" />
<path d="M11443 1656
L11443 1262
" />
<path d="M11573 1262
L11573 1656
" />
<path d="M12243 1656
L12243 1262
" />
<path d="M13373 7062
L13373 7456
" />
<path d="M14043 7456
L14043 7062
" />
<path d="M11643 7456
L11643 7062
" />
<path d="M10973 7062
L10973 7456
" />
<path d="M14854 4423
L14854 4895
" />
<path d="M14162 4895
L14162 4423
" />
<path d="M15654 4423
L15654 4895
" />
<path d="M14962 4895
L14962 4423
" />
<path d="M15762 4895
L15762 4423
" />
<path d="M16454 4423
L16454 4895
" />
<path d="M17254 4423
L17254 4895
" />
<path d="M16562 4895
L16562 4423
" />
<path d="M11454 4423
L11454 4895
" />
<path d="M10762 4895
L10762 4423
" />
<path d="M13454 4423
L13454 4895
" />
<path d="M12762 4895
L12762 4423
" />
<path d="M12454 4423
L12454 4895
" />
<path d="M11762 4895
L11762 4423
" />
<path d="M18054 4423
L18054 4895
" />
<path d="M17362 4895
L17362 4423
" />
<path d="M16407 7381
L16407 7015
" />
<path d="M16407 6137
L16407 6503
" />
<path d="M16407 6137
L15557 6137
" />
<path d="M16407 7381
L15832 7381
" />
<path d="M14462 7045
L14462 6573
" />
<path d="M15154 6573
L15154 7045
" />
<path d="M18162 4895
L18162 4423
" />
<path d="M18854 4423
L18854 4895
" />
</g> 
</svg>
