<?xml version="1.0" standalone="no"?>
 <!DOCTYPE svg PUBLIC "-//W3C//DTD SVG 1.1//EN" 
 "http://www.w3.org/Graphics/SVG/1.1/DTD/svg11.dtd"> 
<svg xmlns="http://www.w3.org/2000/svg" version="1.1" 
    width="6.03758cm" height="2.21488cm" viewBox="0 0 23770 8720 ">
<title>SVG Picture created as wordclock-B.Paste.svg date 2018/10/21 23:31:25 </title>
  <desc>Picture generated by PCBNEW </desc>
<g style="fill:#000000; fill-opacity:1;stroke:#000000; stroke-opacity:1;
stroke-linecap:round; stroke-linejoin:round; "
 transform="translate(0 0) scale(1 1)">
</g>
<g style="fill:#008400; fill-opacity:0.0; 
stroke:#008400; stroke-width:-0.000393701; stroke-opacity:1; 
stroke-linecap:round; stroke-linejoin:round;">
</g>
<g style="fill:#008400; fill-opacity:0.0; 
stroke:#008400; stroke-width:0; stroke-opacity:1; 
stroke-linecap:round; stroke-linejoin:round;">
</g>
<g style="fill:#008400; fill-opacity:1.0; 
stroke:#008400; stroke-width:0; stroke-opacity:1; 
stroke-linecap:round; stroke-linejoin:round;">
<polyline style="fill-rule:evenodd;"
points="8808,5878
8808,8240
7808,8240
7808,5878
8808,5878
" /> 
<polyline style="fill-rule:evenodd;"
points="6808,5878
6808,8240
5808,8240
5808,5878
6808,5878
" /> 
<polyline style="fill-rule:evenodd;"
points="19408,8240
19408,5878
20408,5878
20408,8240
19408,8240
" /> 
<polyline style="fill-rule:evenodd;"
points="21408,8240
21408,5878
22408,5878
22408,8240
21408,8240
" /> 
<polyline style="fill-rule:evenodd;"
points="16608,5878
16608,8240
15608,8240
15608,5878
16608,5878
" /> 
<polyline style="fill-rule:evenodd;"
points="14608,5878
14608,8240
13608,8240
13608,5878
14608,5878
" /> 
<polyline style="fill-rule:evenodd;"
points="12608,5878
12608,8240
11608,8240
11608,5878
12608,5878
" /> 
</g> 
</svg>
