M48
;DRILL file {KiCad 4.0.7} date 10/21/18 23:31:05
;FORMAT={-:-/ absolute / inch / decimal}
FMAT,2
INCH,TZ
T1C0.016
T2C0.031
T3C0.040
%
G90
G05
M72
T1
X2.5075Y-4.28
X2.5075Y-4.32
X2.5075Y-4.36
X2.5075Y-4.4
X2.5075Y-4.44
X2.5875Y-4.24
X2.6675Y-4.2
X3.0075Y-4.44
X3.0275Y-4.2
X3.2275Y-4.36
X3.3475Y-4.24
X3.3675Y-4.44
X3.3875Y-4.32
X3.4375Y-4.165
X3.5875Y-4.4
X3.6075Y-4.48
T2
X2.7275Y-4.16
X2.8075Y-4.48
X2.9575Y-4.68
X2.9575Y-4.73
X2.9835Y-4.008
X2.9835Y-4.092
X3.0075Y-4.68
X3.0075Y-4.73
X3.0275Y-4.16
X3.0875Y-4.7
X3.2075Y-4.5
X3.7475Y-4.64
X3.7475Y-4.7
X4.0275Y-4.24
X4.1259Y-4.24
X4.2615Y-4.502
X4.2615Y-4.558
X4.2615Y-4.618
X4.2615Y-4.676
X4.2615Y-4.74
T3
X3.2875Y-4.08
X3.3875Y-4.09
X3.4875Y-4.08
X3.5875Y-4.09
X3.6875Y-4.08
X3.7875Y-4.09
T0
M30
